<?xml version="1.0" standalone="no"?><!DOCTYPE svg PUBLIC "-//W3C//DTD SVG 1.1//EN" "http://www.w3.org/Graphics/SVG/1.1/DTD/svg11.dtd"><svg t="1727338414564" class="icon" viewBox="0 0 1024 1024" version="1.1" xmlns="http://www.w3.org/2000/svg" p-id="8958" xmlns:xlink="http://www.w3.org/1999/xlink" width="200" height="200"><path d="M512 926.25c-55.91 0-110.164-10.957-161.254-32.566-49.332-20.865-93.631-50.73-131.665-88.765s-67.899-82.333-88.765-131.665C108.707 622.164 97.75 567.91 97.75 512s10.957-110.164 32.566-161.254c20.865-49.332 50.73-93.631 88.765-131.665s82.333-67.899 131.665-88.765C401.836 108.707 456.09 97.75 512 97.75s110.164 10.957 161.254 32.566c49.332 20.865 93.631 50.73 131.665 88.765s67.899 82.333 88.765 131.665C915.293 401.836 926.25 456.09 926.25 512s-10.957 110.164-32.566 161.254c-20.865 49.332-50.73 93.631-88.765 131.665s-82.333 67.899-131.665 88.765C622.164 915.293 567.91 926.25 512 926.25z m0-768.5c-94.624 0-183.583 36.849-250.493 103.757C194.599 328.417 157.75 417.376 157.75 512s36.849 183.584 103.757 250.492C328.417 829.401 417.376 866.25 512 866.25s183.584-36.849 250.492-103.758C829.401 695.584 866.25 606.624 866.25 512s-36.849-183.583-103.758-250.493C695.584 194.599 606.624 157.75 512 157.75z" fill="#27389c" p-id="8959"></path><path d="M460.975 673.536l-44.645-83.988 44.645-83.984 46.007 24.456-31.645 59.528 31.645 59.532zM562.448 673.536l-44.641-83.988 44.641-83.984 46.008 24.456-31.642 59.528 31.642 59.532z" fill="#27389c" p-id="8960"></path><path d="M629.693 328.391a6.782 6.782 0 0 0-4.912-2.106H399.173a6.78 6.78 0 0 0-4.912 2.106l-77.059 80.936a6.782 6.782 0 0 0-0.025 9.327l24.591 26.103a6.782 6.782 0 0 0 9.874-0.002l62.066-65.915a6.783 6.783 0 0 1 4.937-2.133h186.661c1.869 0 3.656 0.771 4.937 2.133l62.066 65.915a6.782 6.782 0 0 0 9.874 0.002l24.591-26.103a6.781 6.781 0 0 0-0.025-9.327l-77.056-80.936z" fill="#27389c" p-id="8961"></path><path d="M418.676 407.825v41.576a4.423 4.423 0 0 0 4.423 4.423h177.815a4.423 4.423 0 0 0 4.423-4.423v-41.576a4.423 4.423 0 0 0-4.423-4.423H423.1a4.423 4.423 0 0 0-4.424 4.423zM681.762 481.9h-339.52a4.423 4.423 0 0 0-4.423 4.423v156.545a4.423 4.423 0 0 1-4.423 4.423h-16.972a4.423 4.423 0 0 0-4.423 4.423v41.576a4.423 4.423 0 0 0 4.423 4.423h391.154a4.423 4.423 0 0 0 4.423-4.423v-41.576a4.423 4.423 0 0 0-4.423-4.423H690.61a4.423 4.423 0 0 1-4.423-4.423V486.323a4.425 4.425 0 0 0-4.425-4.423z m-289.098 50.422H631.34a4.423 4.423 0 0 1 4.423 4.423v106.122a4.423 4.423 0 0 1-4.423 4.423H392.664a4.423 4.423 0 0 1-4.423-4.423V536.746a4.424 4.424 0 0 1 4.423-4.424z" fill="#27389c" p-id="8962"></path></svg>