<?xml version="1.0" standalone="no"?><!DOCTYPE svg PUBLIC "-//W3C//DTD SVG 1.1//EN" "http://www.w3.org/Graphics/SVG/1.1/DTD/svg11.dtd"><svg t="1727082062596" class="icon" viewBox="0 0 1024 1024" version="1.1" xmlns="http://www.w3.org/2000/svg" p-id="11482" xmlns:xlink="http://www.w3.org/1999/xlink" width="200" height="200"><path d="M128 128l352 0 0 352-352 0 0-352Z" p-id="11483" fill="#004198"></path><path d="M544 128l352 0 0 352-352 0 0-352Z" p-id="11484" fill="#004198"></path><path d="M831.89 576l0.11 0.11v223.78l-0.11 0.11H608.11l-0.11-0.11V576.11l0.11-0.11h223.78m0.11-64H608a64.19 64.19 0 0 0-64 64v224a64.19 64.19 0 0 0 64 64h224a64.19 64.19 0 0 0 64-64V576a64.19 64.19 0 0 0-64-64z" p-id="11485" fill="#004198"></path><path d="M128 512l352 0 0 352-352 0 0-352Z" p-id="11486" fill="#004198"></path></svg>