<?xml version="1.0" standalone="no"?><!DOCTYPE svg PUBLIC "-//W3C//DTD SVG 1.1//EN" "http://www.w3.org/Graphics/SVG/1.1/DTD/svg11.dtd"><svg t="1727082147858" class="icon" viewBox="0 0 1365 1024" version="1.1" xmlns="http://www.w3.org/2000/svg" p-id="17209" xmlns:xlink="http://www.w3.org/1999/xlink" width="266.6015625" height="200"><path d="M341.333333 137.045333v749.909334C341.333333 928.380121 372.580848 961.939394 411.151515 961.939394h584.719515C1019.966061 961.939394 1039.515152 940.931879 1039.515152 915.068121c0-25.863758-19.549091-46.871273-43.644122-46.871273H463.515152c-19.207758 0-34.909091-16.880485-34.909091-37.484606 0-20.619636 15.701333-37.500121 34.909091-37.500121H969.69697c38.570667 0 69.818182-33.559273 69.818182-75.000242V137.045333C1039.515152 95.619879 1008.267636 62.060606 969.69697 62.060606H725.333333v337.268364c0 4.871758-1.753212 9.743515-5.057939 13.498182a16.756364 16.756364 0 0 1-24.793212 0C690.936242 407.753697 620.606061 344.948364 620.606061 344.948364s-70.345697 62.805333-74.876122 67.878788a16.756364 16.756364 0 0 1-24.793212 0 20.51103 20.51103 0 0 1-5.057939-13.498182V62.060606H411.151515C372.580848 62.060606 341.333333 95.619879 341.333333 137.045333z" fill="#8a8a8a" p-id="17210"></path></svg>